<svg width="126" height="40" viewBox="0 0 126 40" fill="none" xmlns="http://www.w3.org/2000/svg">
<g filter="url(#filter0_d_169112_92)">
<path d="M52.0883 10.292V23H49.5323V17.474H44.0963V23H41.5583V10.292H44.0963V15.44H49.5323V10.292H52.0883ZM58.9983 12.902C59.9703 12.902 60.8403 13.106 61.6083 13.514C62.3883 13.922 63.0003 14.516 63.4443 15.296C63.8883 16.064 64.1103 16.97 64.1103 18.014C64.1103 19.058 63.8883 19.964 63.4443 20.732C63.0003 21.5 62.3883 22.094 61.6083 22.514C60.8403 22.922 59.9703 23.126 58.9983 23.126C58.0263 23.126 57.1503 22.922 56.3703 22.514C55.6023 22.094 54.9963 21.5 54.5523 20.732C54.1083 19.964 53.8863 19.058 53.8863 18.014C53.8863 16.97 54.1083 16.064 54.5523 15.296C54.9963 14.516 55.6023 13.922 56.3703 13.514C57.1503 13.106 58.0263 12.902 58.9983 12.902ZM58.9983 15.098C58.2903 15.098 57.6903 15.35 57.1983 15.854C56.7063 16.346 56.4603 17.066 56.4603 18.014C56.4603 18.962 56.7063 19.688 57.1983 20.192C57.6903 20.684 58.2903 20.93 58.9983 20.93C59.7063 20.93 60.3063 20.684 60.7983 20.192C61.2903 19.688 61.5363 18.962 61.5363 18.014C61.5363 17.066 61.2903 16.346 60.7983 15.854C60.3063 15.35 59.7063 15.098 58.9983 15.098ZM70.512 12.902C71.484 12.902 72.354 13.106 73.122 13.514C73.902 13.922 74.514 14.516 74.958 15.296C75.402 16.064 75.624 16.97 75.624 18.014C75.624 19.058 75.402 19.964 74.958 20.732C74.514 21.5 73.902 22.094 73.122 22.514C72.354 22.922 71.484 23.126 70.512 23.126C69.54 23.126 68.664 22.922 67.884 22.514C67.116 22.094 66.51 21.5 66.066 20.732C65.622 19.964 65.4 19.058 65.4 18.014C65.4 16.97 65.622 16.064 66.066 15.296C66.51 14.516 67.116 13.922 67.884 13.514C68.664 13.106 69.54 12.902 70.512 12.902ZM70.512 15.098C69.804 15.098 69.204 15.35 68.712 15.854C68.22 16.346 67.974 17.066 67.974 18.014C67.974 18.962 68.22 19.688 68.712 20.192C69.204 20.684 69.804 20.93 70.512 20.93C71.22 20.93 71.82 20.684 72.312 20.192C72.804 19.688 73.05 18.962 73.05 18.014C73.05 17.066 72.804 16.346 72.312 15.854C71.82 15.35 71.22 15.098 70.512 15.098Z" fill="white"/>
<path d="M84.5096 16.448C85.2776 16.604 85.8896 16.97 86.3456 17.546C86.8136 18.11 87.0476 18.776 87.0476 19.544C87.0476 20.612 86.6876 21.458 85.9676 22.082C85.2596 22.694 84.2276 23 82.8716 23H77.4176V10.292H82.7636C84.0476 10.292 85.0316 10.574 85.7156 11.138C86.4116 11.702 86.7596 12.494 86.7596 13.514C86.7596 14.306 86.5496 14.954 86.1296 15.458C85.7216 15.962 85.1816 16.292 84.5096 16.448ZM79.9556 15.62H82.2416C82.8776 15.62 83.3576 15.482 83.6816 15.206C84.0176 14.918 84.1856 14.51 84.1856 13.982C84.1856 13.454 84.0236 13.046 83.6996 12.758C83.3756 12.47 82.8776 12.326 82.2056 12.326H79.9556V15.62ZM82.3676 20.93C83.0396 20.93 83.5556 20.786 83.9156 20.498C84.2756 20.198 84.4556 19.766 84.4556 19.202C84.4556 18.638 84.2696 18.206 83.8976 17.906C83.5376 17.594 83.0216 17.438 82.3496 17.438H79.9556V20.93H82.3676ZM92.7318 12.902C93.5718 12.902 94.2918 13.1 94.8918 13.496C95.4918 13.892 95.9178 14.426 96.1698 15.098V13.028H98.6898V23H96.1698V20.912C95.9178 21.584 95.4918 22.124 94.8918 22.532C94.2918 22.928 93.5718 23.126 92.7318 23.126C91.8918 23.126 91.1358 22.922 90.4638 22.514C89.7918 22.106 89.2638 21.518 88.8798 20.75C88.5078 19.97 88.3218 19.058 88.3218 18.014C88.3218 16.97 88.5078 16.064 88.8798 15.296C89.2638 14.516 89.7918 13.922 90.4638 13.514C91.1358 13.106 91.8918 12.902 92.7318 12.902ZM93.5238 15.116C92.7318 15.116 92.0958 15.374 91.6158 15.89C91.1358 16.406 90.8958 17.114 90.8958 18.014C90.8958 18.914 91.1358 19.622 91.6158 20.138C92.0958 20.642 92.7318 20.894 93.5238 20.894C94.2918 20.894 94.9218 20.636 95.4138 20.12C95.9178 19.592 96.1698 18.89 96.1698 18.014C96.1698 17.126 95.9178 16.424 95.4138 15.908C94.9218 15.38 94.2918 15.116 93.5238 15.116ZM106.93 12.884C108.082 12.884 109 13.262 109.684 14.018C110.368 14.774 110.71 15.836 110.71 17.204V23H108.19V17.492C108.19 16.7 107.986 16.088 107.578 15.656C107.17 15.212 106.612 14.99 105.904 14.99C105.184 14.99 104.608 15.224 104.176 15.692C103.744 16.16 103.528 16.832 103.528 17.708V23H100.99V13.028H103.528V15.026C103.792 14.354 104.224 13.832 104.824 13.46C105.436 13.076 106.138 12.884 106.93 12.884ZM118.775 23L115.481 18.644V23H112.943V9.68H115.481V17.168L118.757 13.028H121.763L117.569 17.996L121.871 23H118.775Z" fill="#5CE1E6"/>
</g>
<g filter="url(#filter1_d_169112_92)">
<path d="M20.4062 0C17.2417 -3.77363e-08 14.1483 0.938383 11.5171 2.69649C8.88594 4.45459 6.83518 6.95345 5.62418 9.87706C4.41318 12.8007 4.09632 16.0177 4.71368 19.1214C5.33105 22.2251 6.8549 25.0761 9.09254 27.3137C11.3302 29.5513 14.1811 31.0752 17.2848 31.6926C20.3885 32.3099 23.6056 31.9931 26.5292 30.7821C29.4528 29.5711 31.9517 27.5203 33.7098 24.8891C35.4679 22.2579 36.4062 19.1645 36.4062 16L28.4062 16C28.4062 17.5823 27.9371 19.129 27.058 20.4446C26.179 21.7602 24.9295 22.7855 23.4677 23.391C22.0059 23.9965 20.3974 24.155 18.8455 23.8463C17.2937 23.5376 15.8682 22.7757 14.7494 21.6569C13.6306 20.538 12.8686 19.1126 12.56 17.5607C12.2513 16.0089 12.4097 14.4003 13.0152 12.9385C13.6207 11.4767 14.6461 10.2273 15.9617 9.34824C17.2773 8.46919 18.824 8 20.4062 8V0Z" fill="white"/>
<path d="M20.4062 0C18.3051 -2.5056e-08 16.2245 0.413852 14.2833 1.21793C12.3421 2.022 10.5783 3.20055 9.09254 4.68629C7.6068 6.17203 6.42825 7.93586 5.62418 9.87707C4.8201 11.8183 4.40625 13.8989 4.40625 16H12.4062C12.4062 14.9494 12.6132 13.9091 13.0152 12.9385C13.4173 11.9679 14.0065 11.086 14.7494 10.3431C15.4923 9.60028 16.3742 9.011 17.3448 8.60896C18.3154 8.20693 19.3557 8 20.4062 8V0Z" fill="#5CE1E6"/>
<circle cx="20.4062" cy="16" r="5" fill="#5CE1E6"/>
<path d="M25.4062 16C25.4062 15.3434 25.2769 14.6932 25.0256 14.0866C24.7744 13.48 24.4061 12.9288 23.9418 12.4645C23.4775 12.0002 22.9263 11.6319 22.3197 11.3806C21.713 11.1293 21.0629 11 20.4062 11C19.7496 11 19.0995 11.1293 18.4928 11.3806C17.8862 11.6319 17.335 12.0002 16.8707 12.4645C16.4064 12.9288 16.0381 13.48 15.7869 14.0866C15.5356 14.6932 15.4062 15.3434 15.4063 16L20.4062 16H25.4062Z" fill="white"/>
</g>
<defs>
<filter id="filter0_d_169112_92" x="37.5583" y="9.67993" width="88.3127" height="21.446" filterUnits="userSpaceOnUse" color-interpolation-filters="sRGB">
<feFlood flood-opacity="0" result="BackgroundImageFix"/>
<feColorMatrix in="SourceAlpha" type="matrix" values="0 0 0 0 0 0 0 0 0 0 0 0 0 0 0 0 0 0 127 0" result="hardAlpha"/>
<feOffset dy="4"/>
<feGaussianBlur stdDeviation="2"/>
<feComposite in2="hardAlpha" operator="out"/>
<feColorMatrix type="matrix" values="0 0 0 0 0 0 0 0 0 0 0 0 0 0 0 0 0 0 0.25 0"/>
<feBlend mode="normal" in2="BackgroundImageFix" result="effect1_dropShadow_169112_92"/>
<feBlend mode="normal" in="SourceGraphic" in2="effect1_dropShadow_169112_92" result="shape"/>
</filter>
<filter id="filter1_d_169112_92" x="0.40625" y="0" width="40" height="40" filterUnits="userSpaceOnUse" color-interpolation-filters="sRGB">
<feFlood flood-opacity="0" result="BackgroundImageFix"/>
<feColorMatrix in="SourceAlpha" type="matrix" values="0 0 0 0 0 0 0 0 0 0 0 0 0 0 0 0 0 0 127 0" result="hardAlpha"/>
<feOffset dy="4"/>
<feGaussianBlur stdDeviation="2"/>
<feComposite in2="hardAlpha" operator="out"/>
<feColorMatrix type="matrix" values="0 0 0 0 0 0 0 0 0 0 0 0 0 0 0 0 0 0 0.25 0"/>
<feBlend mode="normal" in2="BackgroundImageFix" result="effect1_dropShadow_169112_92"/>
<feBlend mode="normal" in="SourceGraphic" in2="effect1_dropShadow_169112_92" result="shape"/>
</filter>
</defs>
</svg>
